name analog
datacolumns 19
datarows 57
range 0.255 0.28300000000000003
endheader
time	ground_force_vx	ground_force_vy	ground_force_vz	ground_force_px	ground_force_py	ground_force_pz	l_ground_force_vx	l_ground_force_vy	l_ground_force_vz	l_ground_force_px	l_ground_force_py	l_ground_force_pz	ground_torque_x	ground_torque_y	ground_torque_z	l_ground_torque_x	l_ground_torque_y	l_ground_torque_z
0.255	-0.0	-0.0	-0.0	-14.03469467163086	2.0643084049224854	-838.8023681640625	-0.0	-0.0	-0.0	-0.0	-0.0	-0.0	-0.0	-0.0	-0.0	-0.0	-0.0	-0.0
0.2555	-0.0	-0.0	-0.0	-15.722355842590332	3.565216064453125	-838.8462524414062	-0.0	-0.0	-0.0	-0.0	-0.0	-0.0	-0.0	-0.0	-0.0	-0.0	-0.0	-0.0
0.256	-0.0	-0.0	-0.0	-16.957021713256836	5.073414325714111	-832.5285034179688	-0.0	-0.0	-0.0	-0.0	-0.0	-0.0	-0.0	-0.0	-0.0	-0.0	-0.0	-0.0
0.2565	-0.0	-0.0	-0.0	-17.38909339904785	6.705631256103516	-832.7432250976562	-0.0	-0.0	-0.0	-0.0	-0.0	-0.0	-0.0	-0.0	-0.0	-0.0	-0.0	-0.0
0.257	-0.0	-0.0	-0.0	-17.046104431152344	7.761235237121582	-831.6841430664062	-0.0	-0.0	-0.0	-0.0	-0.0	-0.0	-0.0	-0.0	-0.0	-0.0	-0.0	-0.0
0.2575	-0.0	-0.0	-0.0	-15.59138298034668	8.83072280883789	-831.8737182617188	-0.0	-0.0	-0.0	-0.0	-0.0	-0.0	-0.0	-0.0	-0.0	-0.0	-0.0	-0.0
0.258	-0.0	-0.0	-0.0	-14.137152671813965	9.56396770477295	-832.2257080078125	-0.0	-0.0	-0.0	-0.0	-0.0	-0.0	-0.0	-0.0	-0.0	-0.0	-0.0	-0.0
0.2585	-0.0	-0.0	-0.0	-11.87168025970459	10.66894245147705	-835.3763427734375	-0.0	-0.0	-0.0	-0.0	-0.0	-0.0	-0.0	-0.0	-0.0	-0.0	-0.0	-0.0
0.259	-0.0	-0.0	-0.0	-10.57636260986328	11.497821807861328	-838.8809204101562	-0.0	-0.0	-0.0	-0.0	-0.0	-0.0	-0.0	-0.0	-0.0	-0.0	-0.0	-0.0
0.2595	-0.0	-0.0	-0.0	-8.640308380126953	11.32611083984375	-842.4379272460938	-0.0	-0.0	-0.0	-0.0	-0.0	-0.0	-0.0	-0.0	-0.0	-0.0	-0.0	-0.0
0.26	-0.0	-0.0	-0.0	-6.505888938903809	11.714917182922363	-846.3473510742188	-0.0	-0.0	-0.0	-0.0	-0.0	-0.0	-0.0	-0.0	-0.0	-0.0	-0.0	-0.0
0.2605	-0.0	-0.0	-0.0	-4.906578063964844	12.198055267333984	-849.5499877929688	-0.0	-0.0	-0.0	-0.0	-0.0	-0.0	-0.0	-0.0	-0.0	-0.0	-0.0	-0.0
0.261	-0.0	-0.0	-0.0	-4.403073310852051	12.624500274658203	-853.18212890625	-0.0	-0.0	-0.0	-0.0	-0.0	-0.0	-0.0	-0.0	-0.0	-0.0	-0.0	-0.0
0.2615	-0.0	-0.0	-0.0	-5.053628444671631	13.9746675491333	-853.0040893554688	-0.0	-0.0	-0.0	-0.0	-0.0	-0.0	-0.0	-0.0	-0.0	-0.0	-0.0	-0.0
0.262	-0.0	-0.0	-0.0	-5.869274616241455	14.770843505859377	-853.208984375	-0.0	-0.0	-0.0	-0.0	-0.0	-0.0	-0.0	-0.0	-0.0	-0.0	-0.0	-0.0
0.2625	-0.0	-0.0	-0.0	-7.321390628814697	15.444053649902344	-853.2098999023438	-0.0	-0.0	-0.0	-0.0	-0.0	-0.0	-0.0	-0.0	-0.0	-0.0	-0.0	-0.0
0.263	-0.0	-0.0	-0.0	-9.456314086914062	15.72333812713623	-851.46875	-0.0	-0.0	-0.0	-0.0	-0.0	-0.0	-0.0	-0.0	-0.0	-0.0	-0.0	-0.0
0.2635	-0.0	-0.0	-0.0	-10.960871696472168	16.067493438720703	-848.40966796875	-0.0	-0.0	-0.0	-0.0	-0.0	-0.0	-0.0	-0.0	-0.0	-0.0	-0.0	-0.0
0.264	-0.0	-0.0	-0.0	-11.24645709991455	16.940704345703125	-849.0210571289062	-0.0	-0.0	-0.0	-0.0	-0.0	-0.0	-0.0	-0.0	-0.0	-0.0	-0.0	-0.0
0.2645	-0.0	-0.0	-0.0	-10.967026710510254	17.392148971557617	-849.0910034179688	-0.0	-0.0	-0.0	-0.0	-0.0	-0.0	-0.0	-0.0	-0.0	-0.0	-0.0	-0.0
0.265	-0.0	-0.0	-0.0	-11.366694450378418	17.831880569458008	-846.6412353515625	-0.0	-0.0	-0.0	-0.0	-0.0	-0.0	-0.0	-0.0	-0.0	-0.0	-0.0	-0.0
0.2655	-0.0	-0.0	-0.0	-10.25920867919922	17.541519165039062	-846.7310180664062	-0.0	-0.0	-0.0	-0.0	-0.0	-0.0	-0.0	-0.0	-0.0	-0.0	-0.0	-0.0
0.266	-0.0	-0.0	-0.0	-9.68432331085205	17.279987335205078	-849.0445556640625	-0.0	-0.0	-0.0	-0.0	-0.0	-0.0	-0.0	-0.0	-0.0	-0.0	-0.0	-0.0
0.2665	-0.0	-0.0	-0.0	-8.474998474121094	16.466812133789062	-849.7288818359375	-0.0	-0.0	-0.0	-0.0	-0.0	-0.0	-0.0	-0.0	-0.0	-0.0	-0.0	-0.0
0.267	-0.0	-0.0	-0.0	-8.174222946166992	15.419559478759766	-848.5601806640625	-0.0	-0.0	-0.0	-0.0	-0.0	-0.0	-0.0	-0.0	-0.0	-0.0	-0.0	-0.0
0.2675	-0.0	-0.0	-0.0	-6.947489738464356	13.658791542053224	-851.6033935546875	-0.0	-0.0	-0.0	-0.0	-0.0	-0.0	-0.0	-0.0	-0.0	-0.0	-0.0	-0.0
0.268	-0.0	-0.0	-0.0	-4.901190280914307	11.765213012695312	-854.40625	-0.0	-0.0	-0.0	-0.0	-0.0	-0.0	-0.0	-0.0	-0.0	-0.0	-0.0	-0.0
0.2685	-0.0	-0.0	-0.0	-2.5085341930389404	9.88815975189209	-857.8740234375	-0.0	-0.0	-0.0	-0.0	-0.0	-0.0	-0.0	-0.0	-0.0	-0.0	-0.0	-0.0
0.269	-0.0	-0.0	-0.0	0.1731602400541305	7.890557289123535	-859.9723510742188	-0.0	-0.0	-0.0	-0.0	-0.0	-0.0	-0.0	-0.0	-0.0	-0.0	-0.0	-0.0
0.2695	-0.0	-0.0	-0.0	2.460517168045044	4.949872970581055	-863.3564453125	-0.0	-0.0	-0.0	-0.0	-0.0	-0.0	-0.0	-0.0	-0.0	-0.0	-0.0	-0.0
0.27	-0.0	-0.0	-0.0	5.678727626800537	1.683238506317139	-867.1176147460938	-0.0	-0.0	-0.0	-0.0	-0.0	-0.0	-0.0	-0.0	-0.0	-0.0	-0.0	-0.0
0.2705	-0.0	-0.0	-0.0	8.683699607849121	-0.697916567325592	-869.9221801757812	-0.0	-0.0	-0.0	-0.0	-0.0	-0.0	-0.0	-0.0	-0.0	-0.0	-0.0	-0.0
0.271	-0.0	-0.0	-0.0	10.819368362426758	-1.970818400382996	-870.981201171875	-0.0	-0.0	-0.0	-0.0	-0.0	-0.0	-0.0	-0.0	-0.0	-0.0	-0.0	-0.0
0.2715	-0.0	-0.0	-0.0	12.043418884277344	-2.7335474491119385	-869.1173706054688	-0.0	-0.0	-0.0	-0.0	-0.0	-0.0	-0.0	-0.0	-0.0	-0.0	-0.0	-0.0
0.272	-0.0	-0.0	-0.0	11.775787353515623	-2.777557849884033	-865.9588623046875	-0.0	-0.0	-0.0	-0.0	-0.0	-0.0	-0.0	-0.0	-0.0	-0.0	-0.0	-0.0
0.2725	-0.0	-0.0	-0.0	11.512930870056152	-3.138647556304932	-865.2341918945312	-0.0	-0.0	-0.0	-0.0	-0.0	-0.0	-0.0	-0.0	-0.0	-0.0	-0.0	-0.0
0.273	-0.0	-0.0	-0.0	10.897830963134766	-3.977883815765381	-862.6879272460938	-0.0	-0.0	-0.0	-0.0	-0.0	-0.0	-0.0	-0.0	-0.0	-0.0	-0.0	-0.0
0.2735	-0.0	-0.0	-0.0	10.526840209960938	-3.8465113639831534	-860.9976196289062	-0.0	-0.0	-0.0	-0.0	-0.0	-0.0	-0.0	-0.0	-0.0	-0.0	-0.0	-0.0
0.274	-0.0	-0.0	-0.0	10.339259147644045	-4.995878219604492	-861.0346069335938	-0.0	-0.0	-0.0	-0.0	-0.0	-0.0	-0.0	-0.0	-0.0	-0.0	-0.0	-0.0
0.2745	-0.0	-0.0	-0.0	9.394119262695312	-5.615215301513672	-859.5152587890625	-0.0	-0.0	-0.0	-0.0	-0.0	-0.0	-0.0	-0.0	-0.0	-0.0	-0.0	-0.0
0.275	-0.0	-0.0	-0.0	9.790982246398926	-6.421819686889648	-857.167724609375	-0.0	-0.0	-0.0	-0.0	-0.0	-0.0	-0.0	-0.0	-0.0	-0.0	-0.0	-0.0
0.2755	-0.0	-0.0	-0.0	10.348419189453123	-7.678329944610596	-859.2348022460938	-0.0	-0.0	-0.0	-0.0	-0.0	-0.0	-0.0	-0.0	-0.0	-0.0	-0.0	-0.0
0.276	-0.0	-0.0	-0.0	11.266313552856444	-7.864947319030762	-862.0100708007812	-0.0	-0.0	-0.0	-0.0	-0.0	-0.0	-0.0	-0.0	-0.0	-0.0	-0.0	-0.0
0.2765	-0.0	-0.0	-0.0	12.684815406799316	-8.115093231201172	-861.4896240234375	-0.0	-0.0	-0.0	-0.0	-0.0	-0.0	-0.0	-0.0	-0.0	-0.0	-0.0	-0.0
0.277	-0.0	-0.0	-0.0	13.55999755859375	-7.839308261871338	-863.5083618164062	-0.0	-0.0	-0.0	-0.0	-0.0	-0.0	-0.0	-0.0	-0.0	-0.0	-0.0	-0.0
0.2775	-0.0	-0.0	-0.0	14.346517562866213	-7.401913166046143	-862.8348388671875	-0.0	-0.0	-0.0	-0.0	-0.0	-0.0	-0.0	-0.0	-0.0	-0.0	-0.0	-0.0
0.278	-0.0	-0.0	-0.0	14.727803230285645	-6.932015895843506	-864.1674194335938	-0.0	-0.0	-0.0	-0.0	-0.0	-0.0	-0.0	-0.0	-0.0	-0.0	-0.0	-0.0
0.2785	-0.0	-0.0	-0.0	15.84781265258789	-5.894467353820801	-864.6001586914062	-0.0	-0.0	-0.0	-0.0	-0.0	-0.0	-0.0	-0.0	-0.0	-0.0	-0.0	-0.0
0.279	-0.0	-0.0	-0.0	15.798039436340332	-5.619101524353027	-862.4962768554688	-0.0	-0.0	-0.0	-0.0	-0.0	-0.0	-0.0	-0.0	-0.0	-0.0	-0.0	-0.0
0.2795	-0.0	-0.0	-0.0	15.6857271194458	-4.720084190368652	-860.0234985351562	-0.0	-0.0	-0.0	-0.0	-0.0	-0.0	-0.0	-0.0	-0.0	-0.0	-0.0	-0.0
0.28	-0.0	-0.0	-0.0	14.823957443237305	-3.840106964111328	-860.0377197265625	-0.0	-0.0	-0.0	-0.0	-0.0	-0.0	-0.0	-0.0	-0.0	-0.0	-0.0	-0.0
0.2805	-0.0	-0.0	-0.0	15.061833381652832	-3.4466264247894287	-860.2879638671875	-0.0	-0.0	-0.0	-0.0	-0.0	-0.0	-0.0	-0.0	-0.0	-0.0	-0.0	-0.0
0.281	-0.0	-0.0	-0.0	14.734241485595703	-3.034057378768921	-859.9500732421875	-0.0	-0.0	-0.0	-0.0	-0.0	-0.0	-0.0	-0.0	-0.0	-0.0	-0.0	-0.0
0.28150000000000003	-0.0	-0.0	-0.0	15.08012580871582	-2.477919816970825	-859.0038452148438	-0.0	-0.0	-0.0	-0.0	-0.0	-0.0	-0.0	-0.0	-0.0	-0.0	-0.0	-0.0
0.28200000000000003	-0.0	-0.0	-0.0	15.704530715942385	-2.324346780776977	-861.8003540039062	-0.0	-0.0	-0.0	-0.0	-0.0	-0.0	-0.0	-0.0	-0.0	-0.0	-0.0	-0.0
0.28250000000000003	-0.0	-0.0	-0.0	17.19720458984375	-2.660308837890625	-864.6383666992188	-0.0	-0.0	-0.0	-0.0	-0.0	-0.0	-0.0	-0.0	-0.0	-0.0	-0.0	-0.0
0.28300000000000003	-0.0	-0.0	-0.0	17.498640060424805	-2.653860092163086	-866.7433471679688	-0.0	-0.0	-0.0	-0.0	-0.0	-0.0	-0.0	-0.0	-0.0	-0.0	-0.0	-0.0
